<svg id="light_theme" xmlns="http://www.w3.org/2000/svg" width="20" height="20" viewBox="0 0 20 20">
  <g id="Group_8757" data-name="Group 8757">
    <g id="Group_8756" data-name="Group 8756">
      <path id="Path_28831" data-name="Path 28831" d="M84.865,76.87a5.687,5.687,0,0,0-4-1.67,5.564,5.564,0,0,0-4,1.67,5.668,5.668,0,0,0,4,9.665,5.564,5.564,0,0,0,4-1.67,5.687,5.687,0,0,0,1.67-4A5.564,5.564,0,0,0,84.865,76.87Z" transform="translate(-70.868 -70.868)" fill="#717880"/>
      <path id="Path_28832" data-name="Path 28832" d="M141.52,3.571a.733.733,0,0,0,.72-.72V.72a.72.72,0,1,0-1.439,0V2.851A.733.733,0,0,0,141.52,3.571Z" transform="translate(-131.52)" fill="#717880"/>
      <path id="Path_28833" data-name="Path 28833" d="M220.2,44.127l1.523-1.523a.7.7,0,0,0-1-1l-1.523,1.523a.7.7,0,0,0,1,1Z" transform="translate(-204.772 -38.535)" fill="#717880"/>
      <path id="Path_28834" data-name="Path 28834" d="M253.651,140.8H251.52a.72.72,0,1,0,0,1.439h2.132a.72.72,0,0,0,0-1.439Z" transform="translate(-234.371 -131.52)" fill="#717880"/>
      <path id="Path_28835" data-name="Path 28835" d="M219.8,218.808a.7.7,0,0,0-1,1l1.523,1.523a.7.7,0,1,0,1-1Z" transform="translate(-204.399 -204.399)" fill="#717880"/>
      <path id="Path_28836" data-name="Path 28836" d="M141.52,250.8a.733.733,0,0,0-.72.72v2.132a.72.72,0,1,0,1.439,0V251.52A.733.733,0,0,0,141.52,250.8Z" transform="translate(-131.52 -234.371)" fill="#717880"/>
      <path id="Path_28837" data-name="Path 28837" d="M42.73,218.808l-1.523,1.523a.7.7,0,1,0,1,1l1.523-1.523a.7.7,0,0,0-1-1Z" transform="translate(-38.163 -204.399)" fill="#717880"/>
      <path id="Path_28838" data-name="Path 28838" d="M3.571,141.52a.733.733,0,0,0-.72-.72H.72a.72.72,0,1,0,0,1.439H2.851A.733.733,0,0,0,3.571,141.52Z" transform="translate(0 -131.52)" fill="#717880"/>
      <path id="Path_28839" data-name="Path 28839" d="M42.73,44.127a.7.7,0,0,0,1-1L42.2,41.608a.7.7,0,1,0-1,1Z" transform="translate(-38.163 -38.535)" fill="#717880"/>
    </g>
  </g>
</svg>
